<?xml version="1.0" encoding="UTF-8"?>
<svg width="538px" height="184px" viewBox="0 0 538 184" version="1.1" xmlns="http://www.w3.org/2000/svg" xmlns:xlink="http://www.w3.org/1999/xlink">
    <!-- Generator: Sketch 53.2 (72643) - https://sketchapp.com -->
    <title>Group 2</title>
    <desc>Created with Sketch.</desc>
    <g id="Page-1" stroke="none" stroke-width="1" fill="none" fill-rule="evenodd">
        <g id="Group-2">
            <rect id="Rectangle" fill="#F40000" x="0" y="0" width="538" height="184"></rect>
            <path d="M97.9995774,91 C102.000704,91 104,90.0016903 104,88 C104,86.0008451 102.000704,85 97.9995774,85 L68,85 L68,91 L97.9995774,91 Z M97.9995774,60 C102.000704,60 104,58.9992606 104,56.9996831 C104,54.9988381 102.000704,54 97.9995774,54 L68,54 L68,60 L97.9995774,60 Z M43,115 L43,30 L97.6421699,30 C117.879868,30 128,40.1201319 128,60.3584715 C128,68.4530376 123.951434,72.4990379 115.856868,72.4990379 C123.951434,72.4990379 128,76.5476038 128,84.6421699 C128,104.882434 117.879868,115 97.6421699,115 L43,115 Z" id="Fill-13" fill="#CECECE" fill-rule="nonzero" opacity="0.7"></path>
            <path d="M188.832899,60 L158,60 L158,54 L188.832899,54 C192.945168,54 195,55.0192267 195,57.058314 C195,59.0200718 192.945168,60 188.832899,60 Z M238,115 L205.079397,82.3292012 C214.784203,78.848754 219.636605,71.522948 219.636605,60.3537072 C219.636605,40.1187575 209.440679,30 189.051411,30 L134,30 L134,114.988456 L158.468802,114.988456 L158.468802,84.6341077 L170.702879,84.6341077 L201.298413,115 L238,115 Z" id="Fill-15" fill="#CECECE" fill-rule="nonzero" opacity="0.7"></path>
            <polygon id="Fill-17" fill="#CECECE" fill-rule="nonzero" opacity="0.7" points="226 115 250 115 250 30 226 30"></polygon>
            <path d="M280,55 L280,91 L298.500977,91 C310.832356,91 317,84.9990492 317,72.9984153 C317,61.0003169 310.832356,55 298.500977,55 L280,55 Z M299.000973,30 C327.666559,30 342,44.1661322 342,72.4983965 C342,100.833226 327.666559,115 299.000973,115 L256,115 L256,30 L299.000973,30 Z" id="Fill-19" fill="#CECECE" fill-rule="nonzero" opacity="0.7"></path>
            <path d="M360.000973,115 C331.332793,115 317,100.833868 317,72.4990379 C317,44.1661322 331.332793,30 360.000973,30 L403,30 L403,54.2862641 L360.000973,54.2862641 C347.714981,54.2862641 341.571985,60.3578301 341.571985,72.4990379 C341.571985,84.6421699 347.714981,90.7137359 360.000973,90.7137359 L378.427366,90.7137359 L378.427366,84.6421699 L360.000973,84.6421699 L360.000973,60.3578301 L403,60.3578301 L403,115 L360.000973,115 Z" id="Fill-20" fill="#CECECE" fill-rule="nonzero" opacity="0.7"></path>
            <polygon id="Rectangle" fill="#CECECE" fill-rule="nonzero" opacity="0.7" points="409 30 494 30 494 54 409 54"></polygon>
            <polygon id="Rectangle" fill="#4A90E2" fill-rule="nonzero" points="409 60 494 60 494 84 409 84"></polygon>
            <polygon id="Rectangle" fill="#CECECE" fill-rule="nonzero" opacity="0.7" points="409 91 494 91 494 115 409 115"></polygon>
            <path d="M508.505633,29 C509.932634,29 511.325816,29.3661329 512.685222,30.0984095 C514.044628,30.8306862 515.103597,31.8783895 515.86216,33.2415507 C516.620724,34.6047119 517,36.0260584 517,37.5056329 C517,38.9701862 516.626357,40.3783895 515.879059,41.730285 C515.131761,43.0821804 514.084058,44.1317612 512.735918,44.879059 C511.387778,45.6263567 509.977697,46 508.505633,46 C507.033569,46 505.623488,45.6263567 504.275348,44.879059 C502.927208,44.1317612 501.877627,43.0821804 501.126574,41.730285 C500.375521,40.3783895 500,38.9701862 500,37.5056329 C500,36.0260584 500.381154,34.6047119 501.143472,33.2415507 C501.905791,31.8783895 502.966638,30.8306862 504.326044,30.0984095 C505.68545,29.3661329 507.078632,29 508.505633,29 Z M509.00556,31 C507.826841,31 506.679646,31.3020886 505.56394,31.9062748 C504.448234,32.5104611 503.575327,33.3741008 502.945195,34.49722 C502.315062,35.6203392 502,36.7897742 502,38.00556 C502,39.2139324 502.309502,40.3722476 502.928515,41.4805401 C503.547528,42.5888327 504.413021,43.4524724 505.52502,44.0714853 C506.637019,44.6904982 507.797187,45 509.00556,45 C510.213932,45 511.374101,44.6904982 512.4861,44.0714853 C513.598099,43.4524724 514.461739,42.5888327 515.077045,41.4805401 C515.692352,40.3722476 516,39.2139324 516,38.00556 C516,36.7897742 515.686792,35.6203392 515.060365,34.49722 C514.433939,33.3741008 513.561033,32.5104611 512.44162,31.9062748 C511.322208,31.3020886 510.176866,31 509.00556,31 Z M505,42 L505,33 L508.272727,33 C509.391012,33 510.200389,33.0831272 510.70088,33.2493842 C511.201371,33.4156412 511.600194,33.705663 511.897361,34.1194581 C512.194527,34.5332533 512.343109,34.9729041 512.343109,35.4384236 C512.343109,36.0960624 512.094822,36.6687168 511.59824,37.1564039 C511.101659,37.6440911 510.442819,37.9174874 509.621701,37.976601 C509.957968,38.1096066 510.22776,38.268472 510.431085,38.453202 C510.814274,38.8078835 511.283477,39.4027052 511.83871,40.2376847 L513,42 L511.123167,42 L510.278592,40.5812808 C509.613877,39.4655117 509.078203,38.7672428 508.671554,38.4864532 C508.390028,38.2795556 507.979475,38.1761084 507.439883,38.1761084 L506.536657,38.1761084 L506.536657,42 L505,42 Z M506,37 L507.786517,37 C508.640454,37 509.222845,36.8612259 509.533708,36.5836735 C509.844571,36.3061211 510,35.9387778 510,35.4816327 C510,35.1877536 509.925094,34.924491 509.775281,34.6918367 C509.625467,34.4591825 509.417604,34.2857149 509.151685,34.1714286 C508.885766,34.0571423 508.393262,34 507.674157,34 L506,34 L506,37 Z" id="®" fill="#FFFFFF" opacity="0.7"></path>
            <path d="M97.9995774,91 C102.000704,91 104,90.0016903 104,88 C104,86.0008451 102.000704,85 97.9995774,85 L68,85 L68,91 L97.9995774,91 Z M97.9995774,60 C102.000704,60 104,58.9992606 104,56.9996831 C104,54.9988381 102.000704,54 97.9995774,54 L68,54 L68,60 L97.9995774,60 Z M43,115 L43,30 L97.6421699,30 C117.879868,30 128,40.1201319 128,60.3584715 C128,68.4530376 123.951434,72.4990379 115.856868,72.4990379 C123.951434,72.4990379 128,76.5476038 128,84.6421699 C128,104.882434 117.879868,115 97.6421699,115 L43,115 Z" id="Fill-13" fill="#CECECE" fill-rule="nonzero" opacity="0.7"></path>
            <path d="M188.832899,60 L158,60 L158,54 L188.832899,54 C192.945168,54 195,55.0192267 195,57.058314 C195,59.0200718 192.945168,60 188.832899,60 Z M238,115 L205.079397,82.3292012 C214.784203,78.848754 219.636605,71.522948 219.636605,60.3537072 C219.636605,40.1187575 209.440679,30 189.051411,30 L134,30 L134,114.988456 L158.468802,114.988456 L158.468802,84.6341077 L170.702879,84.6341077 L201.298413,115 L238,115 Z" id="Fill-15" fill="#CECECE" fill-rule="nonzero" opacity="0.7"></path>
            <polygon id="Fill-17" fill="#CECECE" fill-rule="nonzero" opacity="0.7" points="226 115 250 115 250 30 226 30"></polygon>
            <path d="M280,55 L280,91 L298.500977,91 C310.832356,91 317,84.9990492 317,72.9984153 C317,61.0003169 310.832356,55 298.500977,55 L280,55 Z M299.000973,30 C327.666559,30 342,44.1661322 342,72.4983965 C342,100.833226 327.666559,115 299.000973,115 L256,115 L256,30 L299.000973,30 Z" id="Fill-19" fill="#CECECE" fill-rule="nonzero" opacity="0.7"></path>
            <path d="M360.000973,115 C331.332793,115 317,100.833868 317,72.4990379 C317,44.1661322 331.332793,30 360.000973,30 L403,30 L403,54.2862641 L360.000973,54.2862641 C347.714981,54.2862641 341.571985,60.3578301 341.571985,72.4990379 C341.571985,84.6421699 347.714981,90.7137359 360.000973,90.7137359 L378.427366,90.7137359 L378.427366,84.6421699 L360.000973,84.6421699 L360.000973,60.3578301 L403,60.3578301 L403,115 L360.000973,115 Z" id="Fill-20" fill="#CECECE" fill-rule="nonzero" opacity="0.7"></path>
            <polygon id="Rectangle" fill="#CECECE" fill-rule="nonzero" opacity="0.7" points="409 30 494 30 494 54 409 54"></polygon>
            <polygon id="Rectangle" fill="#CECECE" fill-rule="nonzero" opacity="0.7" points="409 91 494 91 494 115 409 115"></polygon>
            <path d="M97.9995774,91 C102.000704,91 104,90.0016903 104,88 C104,86.0008451 102.000704,85 97.9995774,85 L68,85 L68,91 L97.9995774,91 Z M97.9995774,60 C102.000704,60 104,58.9992606 104,56.9996831 C104,54.9988381 102.000704,54 97.9995774,54 L68,54 L68,60 L97.9995774,60 Z M43,115 L43,30 L97.6421699,30 C117.879868,30 128,40.1201319 128,60.3584715 C128,68.4530376 123.951434,72.4990379 115.856868,72.4990379 C123.951434,72.4990379 128,76.5476038 128,84.6421699 C128,104.882434 117.879868,115 97.6421699,115 L43,115 Z" id="Fill-13" fill="#CECECE" fill-rule="nonzero" opacity="0.7"></path>
            <path d="M188.832899,60 L158,60 L158,54 L188.832899,54 C192.945168,54 195,55.0192267 195,57.058314 C195,59.0200718 192.945168,60 188.832899,60 Z M238,115 L205.079397,82.3292012 C214.784203,78.848754 219.636605,71.522948 219.636605,60.3537072 C219.636605,40.1187575 209.440679,30 189.051411,30 L134,30 L134,114.988456 L158.468802,114.988456 L158.468802,84.6341077 L170.702879,84.6341077 L201.298413,115 L238,115 Z" id="Fill-15" fill="#CECECE" fill-rule="nonzero" opacity="0.7"></path>
            <polygon id="Fill-17" fill="#CECECE" fill-rule="nonzero" opacity="0.7" points="226 115 250 115 250 30 226 30"></polygon>
            <path d="M280,55 L280,91 L298.500977,91 C310.832356,91 317,84.9990492 317,72.9984153 C317,61.0003169 310.832356,55 298.500977,55 L280,55 Z M299.000973,30 C327.666559,30 342,44.1661322 342,72.4983965 C342,100.833226 327.666559,115 299.000973,115 L256,115 L256,30 L299.000973,30 Z" id="Fill-19" fill="#CECECE" fill-rule="nonzero" opacity="0.7"></path>
            <path d="M360.000973,115 C331.332793,115 317,100.833868 317,72.4990379 C317,44.1661322 331.332793,30 360.000973,30 L403,30 L403,54.2862641 L360.000973,54.2862641 C347.714981,54.2862641 341.571985,60.3578301 341.571985,72.4990379 C341.571985,84.6421699 347.714981,90.7137359 360.000973,90.7137359 L378.427366,90.7137359 L378.427366,84.6421699 L360.000973,84.6421699 L360.000973,60.3578301 L403,60.3578301 L403,115 L360.000973,115 Z" id="Fill-20" fill="#CECECE" fill-rule="nonzero" opacity="0.7"></path>
            <polygon id="Rectangle" fill="#4A90E2" fill-rule="nonzero" points="409 60 494 60 494 84 409 84"></polygon>
            <polygon id="Rectangle" fill="#CECECE" fill-rule="nonzero" opacity="0.7" points="409 91 494 91 494 115 409 115"></polygon>
            <path d="M97.9995774,91 C102.000704,91 104,90.0016903 104,88 C104,86.0008451 102.000704,85 97.9995774,85 L68,85 L68,91 L97.9995774,91 Z M97.9995774,60 C102.000704,60 104,58.9992606 104,56.9996831 C104,54.9988381 102.000704,54 97.9995774,54 L68,54 L68,60 L97.9995774,60 Z M43,115 L43,30 L97.6421699,30 C117.879868,30 128,40.1201319 128,60.3584715 C128,68.4530376 123.951434,72.4990379 115.856868,72.4990379 C123.951434,72.4990379 128,76.5476038 128,84.6421699 C128,104.882434 117.879868,115 97.6421699,115 L43,115 Z" id="Fill-13" fill="#CECECE" fill-rule="nonzero" opacity="0.7"></path>
            <path d="M188.832899,60 L158,60 L158,54 L188.832899,54 C192.945168,54 195,55.0192267 195,57.058314 C195,59.0200718 192.945168,60 188.832899,60 Z M238,115 L205.079397,82.3292012 C214.784203,78.848754 219.636605,71.522948 219.636605,60.3537072 C219.636605,40.1187575 209.440679,30 189.051411,30 L134,30 L134,114.988456 L158.468802,114.988456 L158.468802,84.6341077 L170.702879,84.6341077 L201.298413,115 L238,115 Z" id="Fill-15" fill="#CECECE" fill-rule="nonzero" opacity="0.7"></path>
            <polygon id="Fill-17" fill="#CECECE" fill-rule="nonzero" opacity="0.7" points="226 115 250 115 250 30 226 30"></polygon>
            <path d="M280,55 L280,91 L298.500977,91 C310.832356,91 317,84.9990492 317,72.9984153 C317,61.0003169 310.832356,55 298.500977,55 L280,55 Z M299.000973,30 C327.666559,30 342,44.1661322 342,72.4983965 C342,100.833226 327.666559,115 299.000973,115 L256,115 L256,30 L299.000973,30 Z" id="Fill-19" fill="#CECECE" fill-rule="nonzero" opacity="0.7"></path>
            <path d="M360.000973,115 C331.332793,115 317,100.833868 317,72.4990379 C317,44.1661322 331.332793,30 360.000973,30 L403,30 L403,54.2862641 L360.000973,54.2862641 C347.714981,54.2862641 341.571985,60.3578301 341.571985,72.4990379 C341.571985,84.6421699 347.714981,90.7137359 360.000973,90.7137359 L378.427366,90.7137359 L378.427366,84.6421699 L360.000973,84.6421699 L360.000973,60.3578301 L403,60.3578301 L403,115 L360.000973,115 Z" id="Fill-20" fill="#CECECE" fill-rule="nonzero" opacity="0.7"></path>
            <path d="M97.9995774,91 C102.000704,91 104,90.0016903 104,88 C104,86.0008451 102.000704,85 97.9995774,85 L68,85 L68,91 L97.9995774,91 Z M97.9995774,60 C102.000704,60 104,58.9992606 104,56.9996831 C104,54.9988381 102.000704,54 97.9995774,54 L68,54 L68,60 L97.9995774,60 Z M43,115 L43,30 L97.6421699,30 C117.879868,30 128,40.1201319 128,60.3584715 C128,68.4530376 123.951434,72.4990379 115.856868,72.4990379 C123.951434,72.4990379 128,76.5476038 128,84.6421699 C128,104.882434 117.879868,115 97.6421699,115 L43,115 Z" id="Fill-13" fill="#CECECE" fill-rule="nonzero" opacity="0.7"></path>
            <path d="M188.832899,60 L158,60 L158,54 L188.832899,54 C192.945168,54 195,55.0192267 195,57.058314 C195,59.0200718 192.945168,60 188.832899,60 Z M238,115 L205.079397,82.3292012 C214.784203,78.848754 219.636605,71.522948 219.636605,60.3537072 C219.636605,40.1187575 209.440679,30 189.051411,30 L134,30 L134,114.988456 L158.468802,114.988456 L158.468802,84.6341077 L170.702879,84.6341077 L201.298413,115 L238,115 Z" id="Fill-15" fill="#CECECE" fill-rule="nonzero" opacity="0.7"></path>
            <polygon id="Fill-17" fill="#CECECE" fill-rule="nonzero" opacity="0.7" points="226 115 250 115 250 30 226 30"></polygon>
            <path d="M280,55 L280,91 L298.500977,91 C310.832356,91 317,84.9990492 317,72.9984153 C317,61.0003169 310.832356,55 298.500977,55 L280,55 Z M299.000973,30 C327.666559,30 342,44.1661322 342,72.4983965 C342,100.833226 327.666559,115 299.000973,115 L256,115 L256,30 L299.000973,30 Z" id="Fill-19" fill="#CECECE" fill-rule="nonzero" opacity="0.7"></path>
            <path d="M360.000973,115 C331.332793,115 317,100.833868 317,72.4990379 C317,44.1661322 331.332793,30 360.000973,30 L403,30 L403,54.2862641 L360.000973,54.2862641 C347.714981,54.2862641 341.571985,60.3578301 341.571985,72.4990379 C341.571985,84.6421699 347.714981,90.7137359 360.000973,90.7137359 L378.427366,90.7137359 L378.427366,84.6421699 L360.000973,84.6421699 L360.000973,60.3578301 L403,60.3578301 L403,115 L360.000973,115 Z" id="Fill-20" fill="#CECECE" fill-rule="nonzero" opacity="0.7"></path>
            <polygon id="Rectangle" fill="#CECECE" fill-rule="nonzero" opacity="0.7" points="409 30 494 30 494 54 409 54"></polygon>
            <polygon id="Rectangle" fill="#4A90E2" fill-rule="nonzero" points="409 60 494 60 494 84 409 84"></polygon>
            <path d="M97.9995774,91 C102.000704,91 104,90.0016903 104,88 C104,86.0008451 102.000704,85 97.9995774,85 L68,85 L68,91 L97.9995774,91 Z M97.9995774,60 C102.000704,60 104,58.9992606 104,56.9996831 C104,54.9988381 102.000704,54 97.9995774,54 L68,54 L68,60 L97.9995774,60 Z M43,115 L43,30 L97.6421699,30 C117.879868,30 128,40.1201319 128,60.3584715 C128,68.4530376 123.951434,72.4990379 115.856868,72.4990379 C123.951434,72.4990379 128,76.5476038 128,84.6421699 C128,104.882434 117.879868,115 97.6421699,115 L43,115 Z" id="Fill-13" fill="#CECECE" fill-rule="nonzero" opacity="0.7"></path>
            <path d="M188.832899,60 L158,60 L158,54 L188.832899,54 C192.945168,54 195,55.0192267 195,57.058314 C195,59.0200718 192.945168,60 188.832899,60 Z M238,115 L205.079397,82.3292012 C214.784203,78.848754 219.636605,71.522948 219.636605,60.3537072 C219.636605,40.1187575 209.440679,30 189.051411,30 L134,30 L134,114.988456 L158.468802,114.988456 L158.468802,84.6341077 L170.702879,84.6341077 L201.298413,115 L238,115 Z" id="Fill-15" fill="#CECECE" fill-rule="nonzero" opacity="0.7"></path>
            <polygon id="Fill-17" fill="#CECECE" fill-rule="nonzero" opacity="0.7" points="226 115 250 115 250 30 226 30"></polygon>
            <path d="M280,55 L280,91 L298.500977,91 C310.832356,91 317,84.9990492 317,72.9984153 C317,61.0003169 310.832356,55 298.500977,55 L280,55 Z M299.000973,30 C327.666559,30 342,44.1661322 342,72.4983965 C342,100.833226 327.666559,115 299.000973,115 L256,115 L256,30 L299.000973,30 Z" id="Fill-19" fill="#CECECE" fill-rule="nonzero" opacity="0.7"></path>
            <path d="M360.000973,115 C331.332793,115 317,100.833868 317,72.4990379 C317,44.1661322 331.332793,30 360.000973,30 L403,30 L403,54.2862641 L360.000973,54.2862641 C347.714981,54.2862641 341.571985,60.3578301 341.571985,72.4990379 C341.571985,84.6421699 347.714981,90.7137359 360.000973,90.7137359 L378.427366,90.7137359 L378.427366,84.6421699 L360.000973,84.6421699 L360.000973,60.3578301 L403,60.3578301 L403,115 L360.000973,115 Z" id="Fill-20" fill="#CECECE" fill-rule="nonzero" opacity="0.7"></path>
            <polygon id="Rectangle" fill="#FFFFFF" fill-rule="nonzero" opacity="0.7" points="409 30 494 30 494 54 409 54"></polygon>
            <path d="M97.9995774,91 C102.000704,91 104,90.0016903 104,88 C104,86.0008451 102.000704,85 97.9995774,85 L68,85 L68,91 L97.9995774,91 Z M97.9995774,60 C102.000704,60 104,58.9992606 104,56.9996831 C104,54.9988381 102.000704,54 97.9995774,54 L68,54 L68,60 L97.9995774,60 Z M43,115 L43,30 L97.6421699,30 C117.879868,30 128,40.1201319 128,60.3584715 C128,68.4530376 123.951434,72.4990379 115.856868,72.4990379 C123.951434,72.4990379 128,76.5476038 128,84.6421699 C128,104.882434 117.879868,115 97.6421699,115 L43,115 Z" id="Fill-13" fill="#CECECE" fill-rule="nonzero" opacity="0.7"></path>
            <path d="M188.832899,60 L158,60 L158,54 L188.832899,54 C192.945168,54 195,55.0192267 195,57.058314 C195,59.0200718 192.945168,60 188.832899,60 Z M238,115 L205.079397,82.3292012 C214.784203,78.848754 219.636605,71.522948 219.636605,60.3537072 C219.636605,40.1187575 209.440679,30 189.051411,30 L134,30 L134,114.988456 L158.468802,114.988456 L158.468802,84.6341077 L170.702879,84.6341077 L201.298413,115 L238,115 Z" id="Fill-15" fill="#CECECE" fill-rule="nonzero" opacity="0.7"></path>
            <polygon id="Fill-17" fill="#CECECE" fill-rule="nonzero" opacity="0.7" points="226 115 250 115 250 30 226 30"></polygon>
            <path d="M280,55 L280,91 L298.500977,91 C310.832356,91 317,84.9990492 317,72.9984153 C317,61.0003169 310.832356,55 298.500977,55 L280,55 Z M299.000973,30 C327.666559,30 342,44.1661322 342,72.4983965 C342,100.833226 327.666559,115 299.000973,115 L256,115 L256,30 L299.000973,30 Z" id="Fill-19" fill="#CECECE" fill-rule="nonzero" opacity="0.7"></path>
            <path d="M360.000973,115 C331.332793,115 317,100.833868 317,72.4990379 C317,44.1661322 331.332793,30 360.000973,30 L403,30 L403,54.2862641 L360.000973,54.2862641 C347.714981,54.2862641 341.571985,60.3578301 341.571985,72.4990379 C341.571985,84.6421699 347.714981,90.7137359 360.000973,90.7137359 L378.427366,90.7137359 L378.427366,84.6421699 L360.000973,84.6421699 L360.000973,60.3578301 L403,60.3578301 L403,115 L360.000973,115 Z" id="Fill-20" fill="#CECECE" fill-rule="nonzero" opacity="0.7"></path>
            <polygon id="Rectangle" fill="#0075FF" fill-rule="nonzero" points="409 62 494 62 494 86 409 86"></polygon>
            <path d="M97.9995774,91 C102.000704,91 104,90.0016903 104,88 C104,86.0008451 102.000704,85 97.9995774,85 L68,85 L68,91 L97.9995774,91 Z M97.9995774,60 C102.000704,60 104,58.9992606 104,56.9996831 C104,54.9988381 102.000704,54 97.9995774,54 L68,54 L68,60 L97.9995774,60 Z M43,115 L43,30 L97.6421699,30 C117.879868,30 128,40.1201319 128,60.3584715 C128,68.4530376 123.951434,72.4990379 115.856868,72.4990379 C123.951434,72.4990379 128,76.5476038 128,84.6421699 C128,104.882434 117.879868,115 97.6421699,115 L43,115 Z" id="Fill-13" fill="#FFFFFF" fill-rule="nonzero" opacity="0.7"></path>
            <path d="M188.832899,60 L158,60 L158,54 L188.832899,54 C192.945168,54 195,55.0192267 195,57.058314 C195,59.0200718 192.945168,60 188.832899,60 Z M238,115 L205.079397,82.3292012 C214.784203,78.848754 219.636605,71.522948 219.636605,60.3537072 C219.636605,40.1187575 209.440679,30 189.051411,30 L134,30 L134,114.988456 L158.468802,114.988456 L158.468802,84.6341077 L170.702879,84.6341077 L201.298413,115 L238,115 Z" id="Fill-15" fill="#FFFFFF" fill-rule="nonzero" opacity="0.7"></path>
            <polygon id="Fill-17" fill="#FFFFFF" fill-rule="nonzero" opacity="0.7" points="226 115 250 115 250 30 226 30"></polygon>
            <path d="M280,55 L280,91 L298.500977,91 C310.832356,91 317,84.9990492 317,72.9984153 C317,61.0003169 310.832356,55 298.500977,55 L280,55 Z M299.000973,30 C327.666559,30 342,44.1661322 342,72.4983965 C342,100.833226 327.666559,115 299.000973,115 L256,115 L256,30 L299.000973,30 Z" id="Fill-19" fill="#FFFFFF" fill-rule="nonzero" opacity="0.7"></path>
            <path d="M360.000973,115 C331.332793,115 317,100.833868 317,72.4990379 C317,44.1661322 331.332793,30 360.000973,30 L403,30 L403,54.2862641 L360.000973,54.2862641 C347.714981,54.2862641 341.571985,60.3578301 341.571985,72.4990379 C341.571985,84.6421699 347.714981,90.7137359 360.000973,90.7137359 L378.427366,90.7137359 L378.427366,84.6421699 L360.000973,84.6421699 L360.000973,60.3578301 L403,60.3578301 L403,115 L360.000973,115 Z" id="Fill-20" fill="#FFFFFF" fill-rule="nonzero" opacity="0.7"></path>
            <polygon id="Rectangle" fill="#FFFFFF" fill-rule="nonzero" opacity="0.7" points="409 91 494 91 494 115 409 115"></polygon>
            <path d="M508.505633,29 C509.932634,29 511.325816,29.3661329 512.685222,30.0984095 C514.044628,30.8306862 515.103597,31.8783895 515.86216,33.2415507 C516.620724,34.6047119 517,36.0260584 517,37.5056329 C517,38.9701862 516.626357,40.3783895 515.879059,41.730285 C515.131761,43.0821804 514.084058,44.1317612 512.735918,44.879059 C511.387778,45.6263567 509.977697,46 508.505633,46 C507.033569,46 505.623488,45.6263567 504.275348,44.879059 C502.927208,44.1317612 501.877627,43.0821804 501.126574,41.730285 C500.375521,40.3783895 500,38.9701862 500,37.5056329 C500,36.0260584 500.381154,34.6047119 501.143472,33.2415507 C501.905791,31.8783895 502.966638,30.8306862 504.326044,30.0984095 C505.68545,29.3661329 507.078632,29 508.505633,29 Z M509.00556,31 C507.826841,31 506.679646,31.3020886 505.56394,31.9062748 C504.448234,32.5104611 503.575327,33.3741008 502.945195,34.49722 C502.315062,35.6203392 502,36.7897742 502,38.00556 C502,39.2139324 502.309502,40.3722476 502.928515,41.4805401 C503.547528,42.5888327 504.413021,43.4524724 505.52502,44.0714853 C506.637019,44.6904982 507.797187,45 509.00556,45 C510.213932,45 511.374101,44.6904982 512.4861,44.0714853 C513.598099,43.4524724 514.461739,42.5888327 515.077045,41.4805401 C515.692352,40.3722476 516,39.2139324 516,38.00556 C516,36.7897742 515.686792,35.6203392 515.060365,34.49722 C514.433939,33.3741008 513.561033,32.5104611 512.44162,31.9062748 C511.322208,31.3020886 510.176866,31 509.00556,31 Z M505,42 L505,33 L508.272727,33 C509.391012,33 510.200389,33.0831272 510.70088,33.2493842 C511.201371,33.4156412 511.600194,33.705663 511.897361,34.1194581 C512.194527,34.5332533 512.343109,34.9729041 512.343109,35.4384236 C512.343109,36.0960624 512.094822,36.6687168 511.59824,37.1564039 C511.101659,37.6440911 510.442819,37.9174874 509.621701,37.976601 C509.957968,38.1096066 510.22776,38.268472 510.431085,38.453202 C510.814274,38.8078835 511.283477,39.4027052 511.83871,40.2376847 L513,42 L511.123167,42 L510.278592,40.5812808 C509.613877,39.4655117 509.078203,38.7672428 508.671554,38.4864532 C508.390028,38.2795556 507.979475,38.1761084 507.439883,38.1761084 L506.536657,38.1761084 L506.536657,42 L505,42 Z M506,37 L507.786517,37 C508.640454,37 509.222845,36.8612259 509.533708,36.5836735 C509.844571,36.3061211 510,35.9387778 510,35.4816327 C510,35.1877536 509.925094,34.924491 509.775281,34.6918367 C509.625467,34.4591825 509.417604,34.2857149 509.151685,34.1714286 C508.885766,34.0571423 508.393262,34 507.674157,34 L506,34 L506,37 Z" id="®" fill="#FFFFFF" opacity="0.7"></path>
            <text id="&lt;-sleep.code-/&gt;" fill="#0076FF" font-family="Arial-BoldMT, Arial" font-size="37" font-weight="bold">
                <tspan x="138" y="152">&lt; </tspan>
                <tspan x="169.887207" y="152" font-family="Arial-BoldItalicMT, Arial" font-style="italic">sleep.code </tspan>
                <tspan x="371.417969" y="152">/&gt;</tspan>
            </text>
        </g>
    </g>
</svg>